<?xml version="1.0" ?><!DOCTYPE svg  PUBLIC '-//W3C//DTD SVG 1.1//EN'  'http://www.w3.org/Graphics/SVG/1.1/DTD/svg11.dtd'><svg height="100%" style="fill-rule:evenodd;clip-rule:evenodd;stroke-linejoin:round;stroke-miterlimit:1.41421;" version="1.1" viewBox="0 0 110 110" width="100%" xml:space="preserve" xmlns="http://www.w3.org/2000/svg" xmlns:xlink="http://www.w3.org/1999/xlink"><circle cx="55" cy="55" id="circle4695" r="55" style="fill:rgb(37,183,211);"/><path d="M60.3915,16.0559C46.2583,16.0559 31.6034,26.8041 30.2149,40.572C17.0776,38.5985 5.82316,48.8015 5.82316,61.5296C5.82316,73.2497 15.3241,82.7506 27.0442,82.7506L84.6442,82.7506C94.6893,82.7506 102.834,74.6063 102.834,64.5612C102.834,54.3523 95.2547,46.3806 90.7073,46.3806C91.5204,39.0656 88.7507,32.2403 84.0136,26.9151L84.0225,26.9062C83.5505,26.3758 83.0517,25.8663 82.5421,25.3668C82.3645,25.1928 82.1853,25.0218 82.0033,24.8517C81.4298,24.3153 80.8379,23.7959 80.2241,23.3004C80.0417,23.1533 79.8561,23.0115 79.6704,22.8682C79.028,22.3718 78.372,21.8934 77.6928,21.4441C77.5343,21.3394 77.3706,21.2442 77.2102,21.1422C76.5486,20.7205 75.873,20.3178 75.1823,19.9432C75.0729,19.8839 74.9666,19.8206 74.8566,19.7626C74.8422,19.755 74.8267,19.7494 74.8122,19.7418C74.0566,19.3442 73.2841,18.9818 72.5,18.6435C72.3399,18.5745 72.1817,18.5027 72.0204,18.4363C71.2336,18.1114 70.4344,17.8218 69.6254,17.5599C69.4439,17.5013 69.2631,17.4436 69.0806,17.3882C68.2552,17.1372 67.4208,16.9187 66.579,16.7369C66.3375,16.6848 66.0962,16.6351 65.8537,16.5889C65.6161,16.5435 65.3787,16.4982 65.1402,16.4586C64.8352,16.408 64.5286,16.3665 64.2224,16.3254C64.0074,16.2965 63.7925,16.2666 63.577,16.2425C63.2303,16.2037 62.8827,16.1741 62.5349,16.1477C62.3503,16.1338 62.1661,16.1138 61.9813,16.1033C61.4517,16.0735 60.922,16.056 60.3915,16.056L60.3915,16.0559Z" id="path4699" style="fill:white;fill-opacity:0.937255;fill-rule:nonzero;"/><path d="M73.1524,51.9833C73.855,56.8181 72.3796,61.9098 68.608,65.626C63.0355,71.1245 54.4384,71.8012 48.1153,67.6708L52.5451,63.3519L36.264,61.0815L38.5363,76.9817L43.5079,72.219C52.436,78.8009 65.0988,78.1797 73.2116,70.1742C77.9151,65.5336 80.0597,59.3732 79.7935,53.2942L73.1524,51.9833L73.1524,51.9833ZM45.5823,42.9073C51.1528,37.4087 59.7482,36.7284 66.0713,40.8625L61.634,45.1795L77.9151,47.4518L75.6447,31.5442L70.6786,36.318C61.7487,29.7305 49.0896,30.3591 40.9749,38.3628C36.2714,43.0016 34.1287,49.1619 34.393,55.2391L41.0341,56.5481C40.3315,51.7115 41.8106,46.6253 45.5823,42.9073L45.5823,42.9073Z" id="path4" style="fill:rgb(110,189,102);fill-rule:nonzero;"/></svg>